#!OML:ASF Y:\EmotionMaleHayes\Project 1\Capture day 1\Session 1\Male1.ASF
:FULLY-SPECIFIED
:DEGREES
221
root -26.3475 16.6388 -0.537406 143.389 85.7043 130.172
lowerback 11.8188 2.45236 -6.31361
upperback 4.93152 2.74968 -0.974267
thorax -1.67738 1.40505 2.16749
lowerneck -29.1231 -0.168173 2.36761
upperneck 23.2221 -1.2843 0.167406
head 12.5043 -0.299558 -0.559238
rclavicle 1.93318e-014 2.48481e-015
rhumerus -20.4994 28.432 -91.6592
rradius 76.2045
rwrist -21.3349
rhand -23.2067 -27.4525
rfingers 7.12502
rthumb 3.24344 -57.4075
lclavicle 1.93318e-014 2.48481e-015
lhumerus -72.8346 -33.4358 102.161
lradius 73.453
lwrist 25.7151
lhand -31.5853 -21.4036
lfingers 7.12502
lthumb -4.84833 8.52091
rfemur -11.9573 0.179983 11.7139
rtibia 37.1181
rfoot -26.8277 -11.0512
rtoes 0.814188
lfemur -2.84901 -3.64334 -22.3387
ltibia 16.4065
lfoot -27.8503 4.35407
ltoes -12.4871
222
root -26.2535 16.6075 -0.548952 131.779 85.1621 118.586
lowerback 12.2022 2.51497 -7.48407
upperback 5.11707 2.69469 -1.45818
thorax -1.70077 1.37813 2.31237
lowerneck -28.9095 0.0367582 2.74954
upperneck 22.949 -1.15064 0.153188
head 12.3567 -0.21237 -0.600296
rclavicle 1.01194e-014 -1.67352e-014
rhumerus -21.947 28.1271 -92.6154
rradius 76.2199
rwrist -22.3673
rhand -23.1236 -27.5843
rfingers 7.12502
rthumb 3.32373 -57.5381
lclavicle 1.01194e-014 -1.67352e-014
lhumerus -71.971 -32.675 101.243
lradius 72.9068
lwrist 26.6026
lhand -31.5376 -21.0403
lfingers 7.12502
lthumb -4.80221 8.88524
rfemur -13.9327 0.0767569 10.493
rtibia 41.0055
rfoot -25.4804 -10.2763
rtoes 2.67722
lfemur -2.11894 -3.56209 -23.6669
ltibia 15.9186
lfoot -27.9442 4.54171
ltoes -13.6313
223
root -26.1472 16.584 -0.559264 125.403 84.384 112.549
lowerback 12.8949 2.52288 -8.62397
upperback 5.33304 2.54128 -1.81116
thorax -1.84765 1.30746 2.5781
lowerneck -28.2773 0.203935 3.00855
upperneck 22.4426 -0.970989 0.0598797
head 12.0424 -0.13293 -0.6414
rclavicle 2.96189e-014 4.22417e-015
rhumerus -23.582 27.7504 -93.5122
rradius 76.0309
rwrist -23.3161
rhand -23.0992 -28.0634
rfingers 7.12502
rthumb 3.34735 -58.0169
lclavicle 2.96189e-014 4.22417e-015
lhumerus -70.9307 -31.7841 100.485
lradius 72.2368
lwrist 27.5552
lhand -31.5139 -20.8118
lfingers 7.12502
lthumb -4.77939 9.11426
rfemur -15.2653 -0.339158 9.39299
rtibia 44.4584
rfoot -24.5115 -9.23272
rtoes 2.24111
lfemur -0.886656 -3.74146 -24.9414
ltibia 15.2117
lfoot -28.0312 4.73722
ltoes -14.3328
224
root -26.0487 16.5399 -0.569192 120.761 83.9845 107.66
lowerback 12.9898 2.48882 -9.31819
upperback 5.40941 2.41828 -2.17801
thorax -1.80518 1.24712 2.59538
lowerneck -27.8877 0.340383 3.13791
upperneck 22.0922 -0.827547 0.102378
head 11.8377 -0.0584439 -0.618407
rclavicle -5.46658e-016 1.39149e-014
rhumerus -25.3462 27.2613 -94.5401
rradius 75.816
rwrist -23.7997
rhand -22.9972 -28.6455
rfingers 7.12502
rthumb 3.44582 -58.5974
lclavicle -5.46658e-016 1.39149e-014
lhumerus -69.4717 -30.8352 99.541
lradius 71.2202
lwrist 27.4557
lhand -31.7617 -20.7923
lfingers 7.12502
lthumb -5.01861 9.12824
rfemur -17.5514 -0.57201 8.76653
rtibia 47.9583
rfoot -24.0122 -7.57338
rtoes 0.690651
lfemur -0.547065 -3.69509 -25.6912
ltibia 14.8404
lfoot -28.1747 4.95062
ltoes -14.636
225
root -25.9398 16.5004 -0.583347 117.704 83.6839 104.537
lowerback 13.174 2.49314 -9.69091
upperback 5.57623 2.38602 -2.56071
thorax -1.71424 1.23397 2.40151
lowerneck -27.6027 0.367534 3.18505
upperneck 21.8299 -0.869533 0.373991
head 11.6865 -0.0395003 -0.529882
rclavicle -9.74045e-015 -9.93923e-015
rhumerus -27.1434 26.347 -95.5504
rradius 75.4212
rwrist -23.9714
rhand -23.0621 -28.8687
rfingers 7.12502
rthumb 3.38314 -58.8216
lclavicle -9.74045e-015 -9.93923e-015
lhumerus -67.7154 -30.1191 98.479
lradius 70.1178
lwrist 26.6323
lhand -32.0095 -20.5246
lfingers 7.12502
lthumb -5.25786 9.39014
rfemur -19.5349 -0.848129 8.38268
rtibia 51.1064
rfoot -23.5745 -5.46401
rtoes -1.63961
lfemur -0.0209698 -3.52388 -26.2408
ltibia 14.5431
lfoot -28.4 5.04395
ltoes -14.8149
226
root -25.8326 16.459 -0.602197 116.061 83.5849 102.99
lowerback 13.5114 2.37815 -9.89913
upperback 5.9056 2.22037 -2.6883
thorax -1.52285 1.14705 2.40363
lowerneck -27.5911 0.424271 2.85089
upperneck 21.4886 -0.735701 0.67834
head 11.5585 0.0265646 -0.337488
rclavicle 4.47266e-015 -3.06128e-014
rhumerus -28.4787 25.7545 -96.1226
rradius 74.6577
rwrist -23.9929
rhand -22.6028 -29.3711
rfingers 7.12502
rthumb 3.82668 -59.3165
lclavicle 4.47266e-015 -3.06128e-014
lhumerus -65.6789 -29.0328 97.7797
lradius 69.1463
lwrist 26.782
lhand -32.8634 -20.8716
lfingers 7.12502
lthumb -6.08236 9.02109
rfemur -21.3866 -1.22791 8.34395
rtibia 54.0721
rfoot -23.1693 -3.39383
rtoes -2.66097
lfemur 0.721592 -3.46265 -26.543
ltibia 14.1532
lfoot -28.5902 5.1397
ltoes -15.173
